<?xml version="1.0" encoding="UTF-8" standalone="no"?>
<svg
   xmlns:dc="http://purl.org/dc/elements/1.1/"
   xmlns:cc="http://creativecommons.org/ns#"
   xmlns:rdf="http://www.w3.org/1999/02/22-rdf-syntax-ns#"
   xmlns:svg="http://www.w3.org/2000/svg"
   xmlns="http://www.w3.org/2000/svg"
   xmlns:xlink="http://www.w3.org/1999/xlink"
   viewBox="0 0 2314.4221 1919.1686"
   height="1919.1686"
   width="2314.4221"
   id="svg6348"
   version="1.1"
   preserveAspectRatio="none">
  <metadata
     id="metadata6354">
    <rdf:RDF>
      <cc:Work
         rdf:about="">
        <dc:format>image/svg+xml</dc:format>
        <dc:type
           rdf:resource="http://purl.org/dc/dcmitype/StillImage" />
        <dc:title></dc:title>
      </cc:Work>
    </rdf:RDF>
  </metadata>
  <defs
     id="defs6352">
    <linearGradient
       id="linearGradient7027">
      <stop
         id="stop7023"
         offset="0"
         style="stop-color:#ff8f57;stop-opacity:1" />
      <stop
         id="stop7025"
         offset="1"
         style="stop-color:#ff2b9a;stop-opacity:1" />
    </linearGradient>
    <linearGradient
       gradientTransform="translate(-108.63733,-94.786522)"
       gradientUnits="userSpaceOnUse"
       y2="252.26027"
       x2="1602.0013"
       y1="1907.0081"
       x1="1056.0121"
       id="linearGradient7029"
       xlink:href="#linearGradient7027" />
  </defs>
  <path
     id="path7015"
     d="M 915.68157,1912.6186 C 601.97198,1886.7762 377.99226,1830.2449 217.42668,1736.3827 147.49501,1695.5026 70.408718,1619.2085 42.381718,1563.1366 19.559248,1517.477 3.3203983,1450.4961 3.1536283,1401.3312 2.5343383,1218.7572 144.54972,936.45291 392.73968,626.89532 611.95902,353.47167 815.77986,180.42072 1027.832,87.679998 1169.4072,25.762278 1273.2673,3.1918775 1416.7981,3.1516355 c 253.4214,-0.07105 462.2915,105.8748545 648.2813,328.8300345 114.1114,136.79104 188.8459,280.47129 229.0211,440.30281 15.5405,61.82549 17.0272,78.35863 17.1617,190.84813 0.1364,113.95699 -1.1576,128.30969 -17.3163,192.10079 -47.0709,185.8255 -158.5614,362.5956 -306.2114,485.5032 -166.4806,138.5827 -350.9099,217.4266 -593.3373,253.6528 -117.1496,17.5058 -370.4204,27.1502 -478.71563,18.2292 z"
     style="opacity:0;fill:#ff0000;fill-opacity:1;fill-rule:nonzero;stroke:#000000;stroke-width:6.30319977;stroke-linecap:round;stroke-miterlimit:4;stroke-dasharray:none;stroke-opacity:1" />
  <path
     id="path7017"
     d="M 915.68157,1912.6186 C 601.97198,1886.7762 377.99226,1830.2449 217.42668,1736.3827 147.49501,1695.5026 70.408718,1619.2085 42.381718,1563.1366 19.559248,1517.477 3.3203983,1450.4961 3.1536283,1401.3312 2.5343383,1218.7572 144.54972,936.45291 392.73968,626.89532 611.95902,353.47167 815.77986,180.42072 1027.832,87.679998 1169.4072,25.762278 1273.2673,3.1918775 1416.7981,3.1516355 c 253.4214,-0.07105 462.2915,105.8748545 648.2813,328.8300345 114.1114,136.79104 188.8459,280.47129 229.0211,440.30281 15.5405,61.82549 17.0272,78.35863 17.1617,190.84813 0.1364,113.95699 -1.1576,128.30969 -17.3163,192.10079 -47.0709,185.8255 -158.5614,362.5956 -306.2114,485.5032 -166.4806,138.5827 -350.9099,217.4266 -593.3373,253.6528 -117.1496,17.5058 -370.4204,27.1502 -478.71563,18.2292 z"
     style="opacity:0;fill:#ff0000;fill-opacity:1;fill-rule:nonzero;stroke:#000000;stroke-width:6.30319977;stroke-linecap:round;stroke-miterlimit:4;stroke-dasharray:none;stroke-opacity:1" />
  <path
     id="path7019"
     d="M 915.68157,1912.6186 C 601.97198,1886.7762 377.99226,1830.2449 217.42668,1736.3827 147.49501,1695.5026 70.408718,1619.2085 42.381718,1563.1366 19.559248,1517.477 3.3203983,1450.4961 3.1536283,1401.3312 2.5343383,1218.7572 144.54972,936.45291 392.73968,626.89532 611.95902,353.47167 815.77986,180.42072 1027.832,87.679998 1169.4072,25.762278 1273.2673,3.1918775 1416.7981,3.1516355 c 253.4214,-0.07105 462.2915,105.8748545 648.2813,328.8300345 114.1114,136.79104 188.8459,280.47129 229.0211,440.30281 15.5405,61.82549 17.0272,78.35863 17.1617,190.84813 0.1364,113.95699 -1.1576,128.30969 -17.3163,192.10079 -47.0709,185.8255 -158.5614,362.5956 -306.2114,485.5032 -166.4806,138.5827 -350.9099,217.4266 -593.3373,253.6528 -117.1496,17.5058 -370.4204,27.1502 -478.71563,18.2292 z"
     style="opacity:0;fill:#ff00ff;fill-opacity:1;fill-rule:nonzero;stroke:#000000;stroke-width:6.30319977;stroke-linecap:round;stroke-miterlimit:4;stroke-dasharray:none;stroke-opacity:1" />
  <path
     id="path7021"
     d="M 915.68157,1912.6186 C 656.82255,1887.6256 382.15213,1853.8137 164.51475,1699.9518 40.501498,1614.74 -24.237844,1455.6746 13.171158,1308.7217 82.531238,1025.8704 263.61383,787.00281 443.84851,564.63996 661.62585,303.10971 942.99717,59.117118 1291.4986,10.303198 c 239.2487,-34.418894 492.155,38.32263 666.4055,208.534522 186.7934,176.76606 335.4836,414.38591 352.8052,675.71257 9.129,141.70511 -6.507,285.98101 -71.1378,414.32761 -146.984,332.7672 -491.7134,542.5714 -845.1743,585.5115 -158.4503,19.2071 -319.2726,26.1746 -478.71563,18.2292 z"
     style="opacity:1;fill:url(#linearGradient7029);fill-opacity:1;fill-rule:nonzero;stroke:none;stroke-width:6.30319977;stroke-linecap:round;stroke-miterlimit:4;stroke-dasharray:none;stroke-opacity:1" />
</svg>
