<svg xmlns="http://www.w3.org/2000/svg" xmlns:xlink="http://www.w3.org/1999/xlink" height="1919.169" width="2314.422" preserveAspectRatio="none"><defs><linearGradient id="a"><stop offset="0" stop-color="#ff8f57"/><stop offset="1" stop-color="#ff2b9a"/></linearGradient><linearGradient gradientTransform="translate(-108.637 -94.787)" gradientUnits="userSpaceOnUse" y2="252.26" x2="1602.001" y1="1907.008" x1="1056.012" id="b" xlink:href="#a"/></defs><path d="M915.682 1912.619c-258.86-24.993-533.53-58.805-751.167-212.667C40.5 1614.74-24.238 1455.675 13.17 1308.722c69.36-282.852 250.443-521.72 430.678-744.082 217.777-261.53 499.148-505.523 847.65-554.337 239.248-34.419 492.155 38.323 666.405 208.535 186.793 176.766 335.484 414.386 352.805 675.712 9.13 141.705-6.507 285.981-71.138 414.328-146.984 332.767-491.713 542.571-845.174 585.511-158.45 19.208-319.272 26.175-478.715 18.23z" fill="url(#b)"/></svg>